# xmcd
#
# Track frame offsets:
# 150
# 4129
# 16746
# 29713
# 41496
# 53193
# 65910
# 77293
# 90333
# 107062
# 123399
# 135499
# 150571
# 167120
#
# Disc length: 2464 seconds
#
#
# Revision: 0
# Processed by: cddbd v1.5.2PL0 Copyright (c) Steve Scherf et al.
# Submitted via: FreeRIP 2.90 
#
DISCID=a8099e0e
DTITLE=Clube da Viola - Clube da Viola
DYEAR=1900
DGENRE=sertanejo
TTITLE0=Tiao Carreiro - Verso abertura
TTITLE1=Fred e Pedrito - Recortado paulista
TTITLE2=Rick e Renner - To querendo de novo
TTITLE3=Joao Pedro e Cristiano - Saudade
TTITLE4=Guilherme e Gustavo - So com voce
TTITLE5=Trio Parada Dura - Faz isso nao paixao
TTITLE6=Bruno e Marrone - O campeao
TTITLE7=Fred e Pedrito - Pinha no pinheiro
TTITLE8=Leandro e Leonardo - Chega
TTITLE9=Joao Paulo e Daniel - Malicia de mulher
TTITLE10=Ludy e Junior - Agarra agarra
TTITLE11=Chico Rey e Parana - Canarinho prisioneiro
TTITLE12=Cezar e Paulinho - Que saudade matadeira
TTITLE13=Joao Pedro e Cristiano - Vida cigana
EXTD=
EXTT0=
EXTT1=
EXTT2=
EXTT3=
EXTT4=
EXTT5=
EXTT6=
EXTT7=
EXTT8=
EXTT9=
EXTT10=
EXTT11=
EXTT12=
EXTT13=
PLAYORDER=
